<svg width="40" height="40" viewBox="0 0 40 40" fill="none" xmlns="http://www.w3.org/2000/svg">
<g clip-path="url(#clip0_300_2773)">
<path d="M22.165 5.24667L36.555 30.17C36.7745 30.55 36.89 30.9812 36.89 31.42C36.89 31.8588 36.7745 32.2899 36.5551 32.67C36.3356 33.05 36.0201 33.3656 35.64 33.585C35.26 33.8045 34.8289 33.92 34.39 33.92H5.61004C5.17121 33.92 4.74011 33.8045 4.36007 33.585C3.98003 33.3656 3.66444 33.05 3.44503 32.67C3.22561 32.2899 3.1101 31.8588 3.11011 31.42C3.11011 30.9812 3.22563 30.55 3.44504 30.17L17.835 5.24667C18.7967 3.58001 21.2017 3.58001 22.165 5.24667ZM20 25C19.558 25 19.1341 25.1756 18.8215 25.4882C18.509 25.8007 18.3334 26.2246 18.3334 26.6667C18.3334 27.1087 18.509 27.5326 18.8215 27.8452C19.1341 28.1577 19.558 28.3333 20 28.3333C20.4421 28.3333 20.866 28.1577 21.1786 27.8452C21.4911 27.5326 21.6667 27.1087 21.6667 26.6667C21.6667 26.2246 21.4911 25.8007 21.1786 25.4882C20.866 25.1756 20.4421 25 20 25ZM20 13.3333C19.5918 13.3334 19.1978 13.4833 18.8928 13.7545C18.5877 14.0258 18.3928 14.3996 18.345 14.805L18.3334 15V21.6667C18.3338 22.0915 18.4965 22.5001 18.7881 22.809C19.0797 23.1178 19.4783 23.3037 19.9024 23.3286C20.3264 23.3535 20.744 23.2155 21.0698 22.9429C21.3955 22.6702 21.6049 22.2835 21.655 21.8617L21.6667 21.6667V15C21.6667 14.558 21.4911 14.1341 21.1786 13.8215C20.866 13.5089 20.4421 13.3333 20 13.3333Z" fill="white"/>
</g>
<defs>
<clipPath id="clip0_300_2773">
<rect width="40" height="40" fill="white"/>
</clipPath>
</defs>
</svg>
