<svg width="702" height="510" viewBox="0 0 702 510" fill="none" xmlns="http://www.w3.org/2000/svg">
<g filter="url(#filter0_d_46_9777)">
<path d="M215.677 557L247.474 424.628C248.794 394.861 256.575 388.433 286.644 400.561C325.991 411.541 342.657 412.018 353.924 393.43L367.164 377.385M367.164 377.385C373.698 361.699 379.584 355.551 392.173 347.077C407.676 320.866 412.803 306.227 414.292 280.223C417.496 262.597 419.064 253.088 406.919 260.612C400.511 267.159 398.776 271.522 398.163 280.223L395.859 296.268C388.459 302.361 385.9 302.719 387.104 292.257C394.631 269.289 402.734 256.531 420.283 233.87C425.05 224.79 425.063 221.718 414.292 224.065C389.859 242.989 386.875 250.013 380.652 262.841C371.362 273.433 368.105 274.368 371.436 252.59C378.331 237.811 385.341 230.155 400.007 216.934C403.571 209.434 401.19 207.979 389.869 209.803C368.434 226.723 360.552 237.074 351.62 256.601C346.417 266.275 343.417 272.01 347.012 248.578C355.113 235.394 361.088 227.912 376.505 214.26C385.438 205.71 384.072 203.972 371.436 205.792C343.079 223.046 336.731 234.753 329.961 256.601C324.845 275.509 317.894 263.298 318.901 256.601C318.901 256.601 326.909 239.221 335.03 232.088C339.209 225.427 339.823 222.77 327.657 226.294C310.701 241.925 306.246 251.375 304.616 269.08L302.312 336.381L296.782 373.819C291.924 388.237 295.759 392.142 311.528 393.43C334.549 396.338 347.191 396.087 367.164 377.385ZM367.164 377.385H539.176C550.112 378.348 553.035 381.688 551.618 393.43C561.017 406.751 574.002 405.323 599.083 400.561C610.008 397.089 613.864 392.91 617.055 381.842C610.828 347.356 610.266 317.152 611.065 256.601C604.925 242.464 600.728 234.508 586.641 220.054C580.702 218.041 578.105 217.823 578.807 224.065C588.739 237.335 590.474 244.316 592.171 256.601C592.171 256.601 589.867 280.223 584.798 254.818C579.728 229.414 573.92 225.592 558.531 205.792C549.239 200.977 546.099 200.933 547.471 209.803C558.702 230.179 563.5 241.176 571.434 260.612C571.541 269.886 570.61 272.597 563.139 262.841C555.658 240.879 550.486 228.492 533.185 205.792C524.5 201.412 522.318 202.473 522.586 209.803C534.757 230.825 541.65 244.777 547.471 262.841C548.629 282.833 546.775 280.03 542.402 269.08C536.541 250.063 532.483 239.738 513.83 226.294C503.078 221.48 500.265 222.317 502.771 232.088C521.968 252.328 528.678 266.61 537.333 294.485C538.777 313.811 536.851 311.277 533.185 305.628C528.734 287.167 525.661 277.142 513.83 262.841C499.905 249.741 498.55 254.152 500.006 269.08C505.876 275.552 507.366 279.874 508.301 288.245V322.564C533.624 349.145 542.26 359.007 558.531 377.385C569.46 392.578 581.059 389.499 602.77 381.842C633.798 379.794 647.364 377.359 646.087 364.459L639.636 226.294V153.645C640.352 137.545 634.257 132.128 607.378 131.36C512.75 138.243 459.67 135.329 364.984 126.903C347.533 129.335 342.426 131.3 351.62 137.154C383.074 147.396 395.566 145.258 420.283 145.177H582.493C598.046 139.928 602.236 135.52 607.378 126.903C625.025 126.146 634.808 125.637 642.862 117.544C660.107 99.4613 672.822 73.0207 695.856 23.9477C702.696 9.20824 699.734 3.79095 673.276 3L307.842 7.01126C287.502 5.97325 281.089 9.3206 280.653 23.9477V112.195C283.486 127.187 287.536 131.532 299.547 131.36C299.547 131.36 313.571 133.127 324.892 131.36C336.213 129.594 343.896 112.113 371.436 112.195L614.29 117.544C637.947 115.731 645.632 108.986 651.617 89.0193L663.599 43.5583C666.185 30.5541 668.218 22.972 642.862 23.9477H324.892C304.321 23.8183 299.47 29.2751 296.321 43.5583C294.315 79.7097 297.161 94.3015 311.989 106.401C329.358 107.183 332.661 109.484 324.892 117.544C304.513 117.62 297.714 122.508 291.252 137.154C282.14 152.998 280.464 161.757 280.653 177.267L277.427 305.628C276.895 346.31 264.418 362.214 226.736 381.842C190.858 398.894 170.897 406.268 135.493 416.606C80.9917 420.035 54.7163 414.446 28.1207 368.916C13.3885 336.491 15.9997 306.706 39.6413 276.212C68.0761 239.626 97.9266 238.658 159.456 248.578C205.601 280.942 206.329 317.206 180.654 355.1C150.197 391.535 129.28 392.985 87.5672 373.819C87.5672 373.819 78.8115 364.014 84.3049 361.785M84.3049 361.785C60.6545 356.285 59.8645 329.396 67.7517 300.725C91.9043 279.28 107.001 280.572 135.493 296.268C160.324 323.634 151.396 333.639 129.963 350.197C110.859 364.13 101.012 365.566 84.3049 361.785ZM84.3049 361.785C83.327 346.455 88.6119 338.838 103.235 326.13C120.837 320.243 121.285 322.661 116.138 330.586C105.649 337.772 99.3181 339.425 87.5672 339.946C79.1717 336.39 77.5897 330.619 78.8115 315.433C82.7187 307.402 85.3089 306.336 90.793 311.867C91.4411 318.853 91.4989 322.102 90.793 326.13V308.747C96.5357 294.307 99.9775 293.98 106.461 305.628M106.461 305.628C109.023 310.046 108.358 312.04 106.461 315.433M106.461 305.628C111.349 300.665 114.94 300.349 121.668 300.725C139.71 310.552 133.751 312.522 124.433 316.324C117.967 318.078 116.093 317.501 112.913 316.324" stroke="#1E3D58" stroke-width="5" shape-rendering="crispEdges"/>
</g>
<defs>
<filter id="filter0_d_46_9777" x="0.799909" y="0.499634" width="700.699" height="575.784" filterUnits="userSpaceOnUse" color-interpolation-filters="sRGB">
<feFlood flood-opacity="0" result="BackgroundImageFix"/>
<feColorMatrix in="SourceAlpha" type="matrix" values="0 0 0 0 0 0 0 0 0 0 0 0 0 0 0 0 0 0 127 0" result="hardAlpha"/>
<feOffset dx="-9" dy="12"/>
<feGaussianBlur stdDeviation="3.35"/>
<feComposite in2="hardAlpha" operator="out"/>
<feColorMatrix type="matrix" values="0 0 0 0 0.117647 0 0 0 0 0.239216 0 0 0 0 0.345098 0 0 0 0.25 0"/>
<feBlend mode="normal" in2="BackgroundImageFix" result="effect1_dropShadow_46_9777"/>
<feBlend mode="normal" in="SourceGraphic" in2="effect1_dropShadow_46_9777" result="shape"/>
</filter>
</defs>
</svg>
