<svg width="661" height="413" viewBox="0 0 661 413" fill="none" xmlns="http://www.w3.org/2000/svg">
<g filter="url(#filter0_d_46_9777)">
<path d="M230 411L233.698 335.719C234.939 312.228 242.251 307.156 270.506 316.726C307.481 325.391 323.143 325.768 333.73 311.099L346.172 298.437M346.172 298.437C352.312 286.059 357.843 281.208 369.673 274.521C384.241 253.837 389.059 242.285 390.459 221.764C393.469 207.856 394.942 200.351 383.53 206.289C377.509 211.455 375.878 214.899 375.302 221.764L373.137 234.426C366.183 239.234 363.778 239.517 364.909 231.261C371.983 213.137 379.597 203.068 396.088 185.186C400.567 178.02 400.58 175.597 390.459 177.449C367.498 192.382 364.694 197.925 358.847 208.048C350.117 216.406 347.056 217.144 350.186 199.958C356.666 188.296 363.252 182.255 377.034 171.821C380.384 165.903 378.146 164.754 367.507 166.194C347.365 179.546 339.958 187.715 331.565 203.124C326.676 210.758 323.857 215.283 327.235 196.793C334.848 186.389 340.462 180.484 354.949 169.711C363.344 162.964 362.06 161.593 350.186 163.029C323.539 176.645 317.574 185.883 311.212 203.124C306.404 218.044 299.872 208.409 300.819 203.124C300.819 203.124 308.344 189.409 315.976 183.78C319.902 178.523 320.48 176.426 309.047 179.207C293.113 191.543 288.927 199 287.395 212.972L285.23 266.08L280.033 295.624C275.468 307.001 279.072 310.083 293.891 311.099C315.524 313.394 327.403 313.196 346.172 298.437ZM346.172 298.437H507.812C518.089 299.198 520.835 301.833 519.504 311.099C528.337 321.611 540.538 320.484 564.108 316.726C574.374 313.986 577.998 310.689 580.996 301.955C575.145 274.741 574.616 250.906 575.367 203.124C569.597 191.968 565.653 185.69 552.415 174.283C546.835 172.695 544.394 172.523 545.054 177.449C554.387 187.92 556.018 193.429 557.612 203.124C557.612 203.124 555.447 221.764 550.683 201.717C545.92 181.669 540.462 178.654 526 163.029C517.269 159.229 514.318 159.194 515.607 166.194C526.161 182.273 530.67 190.952 538.125 206.289C538.226 213.607 537.351 215.747 530.33 208.048C523.3 190.717 518.441 180.942 502.183 163.029C494.021 159.573 491.971 160.41 492.223 166.194C503.659 182.783 510.138 193.793 515.607 208.048C516.696 223.824 514.953 221.612 510.844 212.972C505.337 197.964 501.523 189.816 483.995 179.207C473.891 175.409 471.247 176.069 473.602 183.78C491.642 199.752 497.948 211.022 506.08 233.019C507.437 248.27 505.627 246.27 502.183 241.812C498 227.244 495.113 219.333 483.995 208.048C470.91 197.71 469.636 201.191 471.004 212.972C476.521 218.079 477.92 221.489 478.799 228.095V255.177C502.595 276.153 510.71 283.935 526 298.437C536.27 310.427 547.17 307.997 567.572 301.955C596.729 300.339 609.477 298.418 608.278 288.238L602.215 179.207V121.878C602.888 109.173 597.161 104.898 571.902 104.293C482.979 109.724 433.1 107.425 344.123 100.776C327.724 102.695 322.926 104.245 331.565 108.865C361.123 116.947 372.861 115.259 396.088 115.196H548.518C563.133 111.054 567.07 107.575 571.902 100.776C588.485 100.178 597.679 99.7767 605.246 93.3898C621.452 79.1203 633.4 58.2553 655.046 19.5304C661.473 7.8991 658.69 3.62416 633.827 3L290.426 6.1654C271.313 5.34628 265.287 7.98776 264.877 19.5304V89.1692C267.539 101 271.344 104.428 282.632 104.293C282.632 104.293 295.81 105.687 306.449 104.293C317.087 102.899 324.306 89.1039 350.186 89.1692L578.398 93.3898C600.628 91.9592 607.85 86.6362 613.474 70.8803L624.733 35.0057C627.164 24.7437 629.074 18.7605 605.246 19.5304H306.449C287.117 19.4283 282.559 23.7344 279.6 35.0057C277.715 63.5338 280.39 75.0486 294.324 84.597C310.645 85.2136 313.749 87.0295 306.449 93.3898C287.298 93.4496 280.909 97.3068 274.837 108.865C266.275 121.367 264.699 128.28 264.877 140.519L261.846 241.812C261.345 273.916 249.621 286.466 214.211 301.955C180.496 315.411 161.738 321.23 128.469 329.388C77.254 332.094 52.5628 327.683 27.5708 291.755C13.7268 266.167 16.1806 242.663 38.3968 218.599C65.1171 189.729 93.1678 188.965 150.987 196.793C194.35 222.332 195.034 250.949 170.907 280.852C142.287 309.604 122.63 310.748 83.433 295.624C83.433 295.624 75.2052 287.886 80.3674 286.128M80.3674 286.128C58.143 281.787 57.4006 260.568 64.8122 237.943C87.5086 221.021 101.695 222.04 128.469 234.426C151.803 256.021 143.413 263.917 123.273 276.983C105.321 287.978 96.0671 289.111 80.3674 286.128ZM80.3674 286.128C79.4485 274.03 84.4147 268.02 98.1563 257.991C114.697 253.345 115.118 255.253 110.281 261.508C100.424 267.178 94.4754 268.482 83.433 268.894C75.5437 266.087 74.0571 261.533 75.2052 249.55C78.8768 243.212 81.3109 242.371 86.4643 246.736C87.0734 252.249 87.1276 254.812 86.4643 257.991V244.274C91.8607 232.879 95.095 232.621 101.188 241.812M101.188 241.812C103.595 245.299 102.97 246.873 101.188 249.55M101.188 241.812C105.781 237.896 109.155 237.646 115.478 237.943C132.432 245.698 126.832 247.253 118.076 250.253C112 251.637 110.239 251.181 107.25 250.253" stroke="#1E3D58" stroke-width="5" shape-rendering="crispEdges"/>
</g>
<defs>
<filter id="filter0_d_46_9777" x="0.799756" y="0.499756" width="659.699" height="429.323" filterUnits="userSpaceOnUse" color-interpolation-filters="sRGB">
<feFlood flood-opacity="0" result="BackgroundImageFix"/>
<feColorMatrix in="SourceAlpha" type="matrix" values="0 0 0 0 0 0 0 0 0 0 0 0 0 0 0 0 0 0 127 0" result="hardAlpha"/>
<feOffset dx="-9" dy="12"/>
<feGaussianBlur stdDeviation="3.35"/>
<feComposite in2="hardAlpha" operator="out"/>
<feColorMatrix type="matrix" values="0 0 0 0 0.117647 0 0 0 0 0.239216 0 0 0 0 0.345098 0 0 0 0.25 0"/>
<feBlend mode="normal" in2="BackgroundImageFix" result="effect1_dropShadow_46_9777"/>
<feBlend mode="normal" in="SourceGraphic" in2="effect1_dropShadow_46_9777" result="shape"/>
</filter>
</defs>
</svg>
