<svg width="32" height="32" viewBox="0 0 32 32" fill="none" xmlns="http://www.w3.org/2000/svg">
<path d="M15.3332 25.3333H8.6665C7.00339 25.3333 5.58739 24.7528 4.4185 23.592C3.24962 22.4311 2.66562 21.0191 2.6665 19.356C2.6665 17.828 3.18873 16.4715 4.23317 15.2866C5.27762 14.1017 6.57584 13.4662 8.12784 13.38C8.42739 11.4377 9.32073 9.83329 10.8078 8.56663C12.2949 7.29996 14.0256 6.66663 15.9998 6.66663C18.2238 6.66663 20.1132 7.44396 21.6678 8.99863C23.2225 10.5533 23.9998 12.4426 23.9998 14.6666V16H24.8198C26.0972 16.0408 27.1687 16.5097 28.0345 17.4066C28.9003 18.3035 29.3332 19.3902 29.3332 20.6666C29.3332 21.9742 28.8825 23.0791 27.9812 23.9813C27.0798 24.8835 25.9749 25.3342 24.6665 25.3333H16.6665V15.44L19.4665 18.2266L20.4105 17.3066L15.9998 12.8986L11.5892 17.3093L12.5332 18.2266L15.3332 15.4426V25.3333Z" fill="white"/>
</svg>
