<svg width="28" height="29" viewBox="0 0 28 29" fill="none" xmlns="http://www.w3.org/2000/svg">
<path d="M26.25 7.49992C26.25 6.57166 25.8813 5.68142 25.2249 5.02505C24.5685 4.36867 23.6783 3.99992 22.75 3.99992H21.875V3.14953C21.875 2.67867 21.513 2.27453 21.0421 2.25101C20.9238 2.24531 20.8056 2.26369 20.6946 2.30504C20.5836 2.34638 20.4821 2.40983 20.3964 2.49154C20.3106 2.57325 20.2424 2.67152 20.1957 2.78039C20.1491 2.88926 20.125 3.00647 20.125 3.12492V3.99992H7.875V3.14953C7.875 2.67867 7.51297 2.27453 7.04211 2.25101C6.9238 2.24531 6.80557 2.26369 6.69457 2.30504C6.58358 2.34638 6.48213 2.40983 6.39638 2.49154C6.31063 2.57325 6.24237 2.67152 6.19572 2.78039C6.14907 2.88926 6.12501 3.00647 6.125 3.12492V3.99992H5.25C4.32174 3.99992 3.4315 4.36867 2.77513 5.02505C2.11875 5.68142 1.75 6.57166 1.75 7.49992V8.15617C1.75 8.21419 1.77305 8.26983 1.81407 8.31085C1.85509 8.35187 1.91073 8.37492 1.96875 8.37492H26.0312C26.0893 8.37492 26.1449 8.35187 26.1859 8.31085C26.227 8.26983 26.25 8.21419 26.25 8.15617V7.49992ZM1.75 23.2499C1.75 24.1782 2.11875 25.0684 2.77513 25.7248C3.4315 26.3812 4.32174 26.7499 5.25 26.7499H22.75C23.6783 26.7499 24.5685 26.3812 25.2249 25.7248C25.8813 25.0684 26.25 24.1782 26.25 23.2499V10.289C26.25 10.2455 26.2327 10.2037 26.2019 10.173C26.1712 10.1422 26.1294 10.1249 26.0859 10.1249H1.91406C1.87055 10.1249 1.82882 10.1422 1.79805 10.173C1.76729 10.2037 1.75 10.2455 1.75 10.289V23.2499ZM20.5625 11.8749C20.8221 11.8749 21.0758 11.9519 21.2917 12.0961C21.5075 12.2403 21.6758 12.4453 21.7751 12.6851C21.8744 12.925 21.9004 13.1889 21.8498 13.4435C21.7991 13.6981 21.6741 13.9319 21.4906 14.1155C21.307 14.2991 21.0732 14.4241 20.8186 14.4747C20.564 14.5253 20.3001 14.4994 20.0602 14.4C19.8204 14.3007 19.6154 14.1324 19.4712 13.9166C19.327 13.7008 19.25 13.447 19.25 13.1874C19.25 12.8393 19.3883 12.5055 19.6344 12.2593C19.8806 12.0132 20.2144 11.8749 20.5625 11.8749ZM20.5625 16.2499C20.8221 16.2499 21.0758 16.3269 21.2917 16.4711C21.5075 16.6153 21.6758 16.8203 21.7751 17.0601C21.8744 17.3 21.9004 17.5639 21.8498 17.8185C21.7991 18.0731 21.6741 18.3069 21.4906 18.4905C21.307 18.6741 21.0732 18.7991 20.8186 18.8497C20.564 18.9003 20.3001 18.8744 20.0602 18.775C19.8204 18.6757 19.6154 18.5074 19.4712 18.2916C19.327 18.0758 19.25 17.822 19.25 17.5624C19.25 17.2143 19.3883 16.8805 19.6344 16.6343C19.8806 16.3882 20.2144 16.2499 20.5625 16.2499ZM16.1875 11.8749C16.4471 11.8749 16.7008 11.9519 16.9167 12.0961C17.1325 12.2403 17.3008 12.4453 17.4001 12.6851C17.4994 12.925 17.5254 13.1889 17.4748 13.4435C17.4241 13.6981 17.2991 13.9319 17.1156 14.1155C16.932 14.2991 16.6982 14.4241 16.4436 14.4747C16.189 14.5253 15.9251 14.4994 15.6852 14.4C15.4454 14.3007 15.2404 14.1324 15.0962 13.9166C14.952 13.7008 14.875 13.447 14.875 13.1874C14.875 12.8393 15.0133 12.5055 15.2594 12.2593C15.5056 12.0132 15.8394 11.8749 16.1875 11.8749ZM16.1875 16.2499C16.4471 16.2499 16.7008 16.3269 16.9167 16.4711C17.1325 16.6153 17.3008 16.8203 17.4001 17.0601C17.4994 17.3 17.5254 17.5639 17.4748 17.8185C17.4241 18.0731 17.2991 18.3069 17.1156 18.4905C16.932 18.6741 16.6982 18.7991 16.4436 18.8497C16.189 18.9003 15.9251 18.8744 15.6852 18.775C15.4454 18.6757 15.2404 18.5074 15.0962 18.2916C14.952 18.0758 14.875 17.822 14.875 17.5624C14.875 17.2143 15.0133 16.8805 15.2594 16.6343C15.5056 16.3882 15.8394 16.2499 16.1875 16.2499ZM16.1875 20.6249C16.4471 20.6249 16.7008 20.7019 16.9167 20.8461C17.1325 20.9903 17.3008 21.1953 17.4001 21.4351C17.4994 21.675 17.5254 21.9389 17.4748 22.1935C17.4241 22.4481 17.2991 22.6819 17.1156 22.8655C16.932 23.0491 16.6982 23.1741 16.4436 23.2247C16.189 23.2753 15.9251 23.2494 15.6852 23.15C15.4454 23.0507 15.2404 22.8824 15.0962 22.6666C14.952 22.4508 14.875 22.197 14.875 21.9374C14.875 21.5893 15.0133 21.2555 15.2594 21.0093C15.5056 20.7632 15.8394 20.6249 16.1875 20.6249ZM11.8125 16.2499C12.0721 16.2499 12.3258 16.3269 12.5417 16.4711C12.7575 16.6153 12.9258 16.8203 13.0251 17.0601C13.1244 17.3 13.1504 17.5639 13.0998 17.8185C13.0491 18.0731 12.9241 18.3069 12.7406 18.4905C12.557 18.6741 12.3232 18.7991 12.0686 18.8497C11.814 18.9003 11.5501 18.8744 11.3102 18.775C11.0704 18.6757 10.8654 18.5074 10.7212 18.2916C10.577 18.0758 10.5 17.822 10.5 17.5624C10.5 17.2143 10.6383 16.8805 10.8844 16.6343C11.1306 16.3882 11.4644 16.2499 11.8125 16.2499ZM11.8125 20.6249C12.0721 20.6249 12.3258 20.7019 12.5417 20.8461C12.7575 20.9903 12.9258 21.1953 13.0251 21.4351C13.1244 21.675 13.1504 21.9389 13.0998 22.1935C13.0491 22.4481 12.9241 22.6819 12.7406 22.8655C12.557 23.0491 12.3232 23.1741 12.0686 23.2247C11.814 23.2753 11.5501 23.2494 11.3102 23.15C11.0704 23.0507 10.8654 22.8824 10.7212 22.6666C10.577 22.4508 10.5 22.197 10.5 21.9374C10.5 21.5893 10.6383 21.2555 10.8844 21.0093C11.1306 20.7632 11.4644 20.6249 11.8125 20.6249ZM7.4375 16.2499C7.69709 16.2499 7.95085 16.3269 8.16669 16.4711C8.38253 16.6153 8.55075 16.8203 8.65009 17.0601C8.74943 17.3 8.77542 17.5639 8.72478 17.8185C8.67414 18.0731 8.54913 18.3069 8.36558 18.4905C8.18202 18.6741 7.94816 18.7991 7.69356 18.8497C7.43896 18.9003 7.17506 18.8744 6.93523 18.775C6.6954 18.6757 6.49042 18.5074 6.3462 18.2916C6.20198 18.0758 6.125 17.822 6.125 17.5624C6.125 17.2143 6.26328 16.8805 6.50942 16.6343C6.75556 16.3882 7.0894 16.2499 7.4375 16.2499ZM7.4375 20.6249C7.69709 20.6249 7.95085 20.7019 8.16669 20.8461C8.38253 20.9903 8.55075 21.1953 8.65009 21.4351C8.74943 21.675 8.77542 21.9389 8.72478 22.1935C8.67414 22.4481 8.54913 22.6819 8.36558 22.8655C8.18202 23.0491 7.94816 23.1741 7.69356 23.2247C7.43896 23.2753 7.17506 23.2494 6.93523 23.15C6.6954 23.0507 6.49042 22.8824 6.3462 22.6666C6.20198 22.4508 6.125 22.197 6.125 21.9374C6.125 21.5893 6.26328 21.2555 6.50942 21.0093C6.75556 20.7632 7.0894 20.6249 7.4375 20.6249Z" fill="#061633"/>
</svg>
