<svg width="24" height="24" viewBox="0 0 24 24" fill="none" xmlns="http://www.w3.org/2000/svg">
<path d="M10.6 12L8.7 13.9C8.51667 14.0833 8.425 14.3167 8.425 14.6C8.425 14.8833 8.51667 15.1167 8.7 15.3C8.88333 15.4833 9.11667 15.575 9.4 15.575C9.68333 15.575 9.91667 15.4833 10.1 15.3L12 13.4L13.9 15.3C14.0833 15.4833 14.3167 15.575 14.6 15.575C14.8833 15.575 15.1167 15.4833 15.3 15.3C15.4833 15.1167 15.575 14.8833 15.575 14.6C15.575 14.3167 15.4833 14.0833 15.3 13.9L13.4 12L15.3 10.1C15.4833 9.91667 15.575 9.68333 15.575 9.4C15.575 9.11667 15.4833 8.88333 15.3 8.7C15.1167 8.51667 14.8833 8.425 14.6 8.425C14.3167 8.425 14.0833 8.51667 13.9 8.7L12 10.6L10.1 8.7C9.91667 8.51667 9.68333 8.425 9.4 8.425C9.11667 8.425 8.88333 8.51667 8.7 8.7C8.51667 8.88333 8.425 9.11667 8.425 9.4C8.425 9.68333 8.51667 9.91667 8.7 10.1L10.6 12ZM4 20C3.45 20 2.97933 19.8043 2.588 19.413C2.19667 19.0217 2.00067 18.5507 2 18V6C2 5.45 2.196 4.97933 2.588 4.588C2.98 4.19667 3.45067 4.00067 4 4H20C20.55 4 21.021 4.196 21.413 4.588C21.805 4.98 22.0007 5.45067 22 6V18C22 18.55 21.8043 19.021 21.413 19.413C21.0217 19.805 20.5507 20.0007 20 20H4Z" fill="white"/>
</svg>
