<svg width="32" height="32" viewBox="0 0 32 32" fill="none" xmlns="http://www.w3.org/2000/svg">
<path fill-rule="evenodd" clip-rule="evenodd" d="M11.1718 3.55865L16.0918 2.78532C20.3852 2.11065 22.5318 1.77198 23.9318 2.97065C25.3332 4.16798 25.3332 6.34132 25.3332 10.688V14.6667H17.4398L21.0398 10.1653L18.9598 8.49865L13.6265 15.1653L12.9598 16L13.6265 16.832L18.9598 23.4987L21.0398 21.832L17.4398 17.3333H25.3332V21.3107C25.3332 25.6573 25.3332 27.8306 23.9332 29.028C22.5332 30.2253 20.3865 29.888 16.0918 29.2146L11.1718 28.4413C9.02117 28.1026 7.9465 27.9346 7.3065 27.1853C6.6665 26.4373 6.6665 25.3493 6.6665 23.1733V8.82665C6.6665 6.65065 6.6665 5.56132 7.3065 4.81332C7.9465 4.06532 9.02117 3.89598 11.1718 3.55865Z" fill="white"/>
</svg>
