<svg width="28" height="28" viewBox="0 0 28 28" fill="none" xmlns="http://www.w3.org/2000/svg">
<path d="M3.9958 3.00436C3.93072 2.93927 3.85345 2.88765 3.76842 2.85242C3.68338 2.8172 3.59224 2.79907 3.5002 2.79907C3.40816 2.79907 3.31702 2.8172 3.23198 2.85242C3.14695 2.88765 3.06968 2.93927 3.0046 3.00436C2.93952 3.06944 2.88789 3.1467 2.85267 3.23174C2.81745 3.31677 2.79932 3.40792 2.79932 3.49996C2.79932 3.592 2.81745 3.68314 2.85267 3.76817C2.88789 3.85321 2.93952 3.93047 3.0046 3.99556L7.9046 8.89276C5.47812 10.5483 3.78874 13.0809 3.1922 15.9572C3.17345 16.0472 3.17262 16.1401 3.18977 16.2305C3.20692 16.321 3.24171 16.4071 3.29215 16.4841C3.34259 16.561 3.4077 16.6273 3.48375 16.6791C3.5598 16.7309 3.64531 16.7672 3.7354 16.786C3.82549 16.8047 3.91839 16.8055 4.00879 16.7884C4.0992 16.7712 4.18534 16.7364 4.2623 16.686C4.33926 16.6356 4.40553 16.5705 4.45733 16.4944C4.50913 16.4184 4.54545 16.3328 4.5642 16.2428C4.83202 14.9502 5.35459 13.724 6.10141 12.6356C6.84824 11.5472 7.80437 10.6185 8.914 9.90356L11.1344 12.124C10.5587 12.5391 10.08 13.0744 9.73154 13.6927C9.38306 14.3111 9.17308 14.9977 9.11612 15.7052C9.05916 16.4127 9.15659 17.1242 9.40166 17.7903C9.64673 18.4564 10.0336 19.0614 10.5355 19.5633C11.0374 20.0652 11.6423 20.452 12.3085 20.6971C12.9746 20.9422 13.686 21.0396 14.3935 20.9826C15.101 20.9257 15.7877 20.7157 16.406 20.3672C17.0244 20.0187 17.5597 19.5401 17.9748 18.9644L24.0046 24.9956C24.136 25.127 24.3143 25.2008 24.5002 25.2008C24.6861 25.2008 24.8644 25.127 24.9958 24.9956C25.1272 24.8641 25.2011 24.6858 25.2011 24.5C25.2011 24.3141 25.1272 24.1358 24.9958 24.0044L3.9958 3.00436ZM16.9668 17.9564C16.6874 18.4022 16.311 18.7792 15.8658 19.0595C15.4205 19.3398 14.9178 19.5162 14.395 19.5754C13.8722 19.6346 13.3428 19.5751 12.8461 19.4015C12.3495 19.2279 11.8983 18.9445 11.5263 18.5725C11.1543 18.2004 10.8709 17.7493 10.6972 17.2526C10.5236 16.756 10.4642 16.2266 10.5234 15.7038C10.5826 15.181 10.7589 14.6782 11.0392 14.233C11.3195 13.7877 11.6966 13.4114 12.1424 13.132L16.9668 17.9564ZM14.1738 11.2028L18.8974 15.9264C18.8536 14.6875 18.3418 13.5114 17.4653 12.6349C16.5888 11.7583 15.4126 11.2466 14.1738 11.2028ZM14.0002 8.39996C13.2022 8.39996 12.4196 8.50356 11.6678 8.69816L10.5436 7.57396C11.6568 7.19539 12.8244 7.0015 14.0002 6.99996C19.1704 6.99996 23.719 10.7422 24.8082 15.9572C24.8461 16.1391 24.8101 16.3286 24.7083 16.4841C24.6064 16.6395 24.4469 16.7481 24.265 16.786C24.0831 16.8238 23.8935 16.7879 23.7381 16.686C23.5827 16.5841 23.4741 16.4247 23.4362 16.2428C22.4814 11.6578 18.49 8.39996 14.0002 8.39996Z" fill="#061633"/>
</svg>
