<svg width="29" height="28" viewBox="0 0 29 28" fill="none" xmlns="http://www.w3.org/2000/svg">
<path d="M19.7233 3.5047C19.9181 3.5222 20.0033 3.7602 19.8633 3.89903L10.1566 13.6057C10.047 13.7154 9.96845 13.8523 9.92912 14.0024L8.76245 18.4707C8.72394 18.6184 8.72471 18.7735 8.7647 18.9208C8.80469 19.0681 8.8825 19.2023 8.99041 19.3102C9.09832 19.4181 9.23257 19.496 9.37984 19.5359C9.52711 19.5759 9.68229 19.5767 9.82995 19.5382L14.2971 18.3715C14.4473 18.3318 14.5842 18.2529 14.6938 18.1429L24.5381 8.29853C24.5689 8.26691 24.6081 8.24478 24.6511 8.23475C24.6941 8.22472 24.7391 8.22722 24.7807 8.24195C24.8223 8.25668 24.8588 8.28303 24.8859 8.31786C24.913 8.3527 24.9296 8.39458 24.9336 8.43853C25.3432 12.3464 25.3197 16.2876 24.8636 20.1904C24.6034 22.4129 22.8173 24.157 20.603 24.4055C16.5472 24.8552 12.4542 24.8552 8.39845 24.4055C6.18295 24.157 4.39678 22.4129 4.13662 20.1904C3.65563 16.0779 3.65563 11.9233 4.13662 7.81086C4.39678 5.5872 6.18295 3.84303 8.39845 3.5957C12.1604 3.1788 15.9551 3.1483 19.7233 3.5047Z" fill="#061633"/>
<path d="M21.2935 4.94311C21.3206 4.91595 21.3528 4.8944 21.3882 4.87969C21.4236 4.86499 21.4616 4.85742 21.5 4.85742C21.5383 4.85742 21.5763 4.86499 21.6118 4.87969C21.6472 4.8944 21.6794 4.91595 21.7065 4.94311L23.3561 6.59394C23.4106 6.64861 23.4413 6.72266 23.4413 6.79986C23.4413 6.87706 23.4106 6.9511 23.3561 7.00578L13.681 16.6833C13.6441 16.7198 13.5982 16.746 13.548 16.7591L11.315 17.3424C11.2658 17.3553 11.214 17.355 11.1649 17.3417C11.1159 17.3284 11.0711 17.3024 11.0351 17.2665C10.9992 17.2305 10.9732 17.1857 10.9599 17.1366C10.9466 17.0876 10.9463 17.0358 10.9591 16.9866L11.5425 14.7536C11.5555 14.7033 11.5816 14.6574 11.6183 14.6206L21.2935 4.94311Z" fill="#061633"/>
</svg>
