<svg width="24" height="24" viewBox="0 0 24 24" fill="none" xmlns="http://www.w3.org/2000/svg">
<path d="M16.4768 3.00406C16.6438 3.01906 16.7168 3.22306 16.5968 3.34206L8.27682 11.6621C8.18283 11.7561 8.11553 11.8734 8.08182 12.0021L7.08182 15.8321C7.04881 15.9586 7.04948 16.0916 7.08375 16.2179C7.11803 16.3441 7.18472 16.4592 7.27721 16.5517C7.36971 16.6442 7.48478 16.7109 7.61101 16.7451C7.73725 16.7794 7.87025 16.7801 7.99682 16.7471L11.8258 15.7471C11.9545 15.713 12.0719 15.6454 12.1658 15.5511L20.6038 7.11306C20.6302 7.08596 20.6638 7.06699 20.7007 7.05839C20.7375 7.0498 20.7761 7.05194 20.8117 7.06457C20.8474 7.07719 20.8787 7.09977 20.9019 7.12963C20.9252 7.15949 20.9394 7.19539 20.9428 7.23306C21.2939 10.5827 21.2737 13.9609 20.8828 17.3061C20.6598 19.2111 19.1288 20.7061 17.2308 20.9191C13.7545 21.3045 10.2462 21.3045 6.76982 20.9191C4.87082 20.7061 3.33982 19.2111 3.11682 17.3061C2.70455 13.7811 2.70455 10.22 3.11682 6.69506C3.33982 4.78906 4.87082 3.29406 6.76982 3.08206C9.99434 2.72472 13.247 2.69858 16.4768 3.00406Z" fill="white"/>
<path d="M17.8231 4.23702C17.8463 4.21374 17.8739 4.19527 17.9043 4.18266C17.9347 4.17006 17.9672 4.16357 18.0001 4.16357C18.033 4.16357 18.0656 4.17006 18.0959 4.18266C18.1263 4.19527 18.1539 4.21374 18.1771 4.23702L19.5911 5.65202C19.6378 5.69888 19.6641 5.76235 19.6641 5.82852C19.6641 5.89469 19.6378 5.95816 19.5911 6.00502L11.2981 14.3C11.2665 14.3313 11.2272 14.3538 11.1841 14.365L9.27012 14.865C9.22793 14.876 9.1836 14.8758 9.14152 14.8644C9.09944 14.853 9.06109 14.8307 9.03025 14.7999C8.99942 14.7691 8.97719 14.7307 8.96577 14.6886C8.95434 14.6465 8.95412 14.6022 8.96512 14.56L9.46512 12.646C9.47625 12.6029 9.49869 12.5636 9.53012 12.532L17.8231 4.23702Z" fill="#061633"/>
</svg>
