<svg width="24" height="24" viewBox="0 0 24 24" fill="none" xmlns="http://www.w3.org/2000/svg">
<g clip-path="url(#clip0_69_1498)">
<path d="M12 1.3335C9.89038 1.3335 7.82809 1.95909 6.07396 3.13115C4.31984 4.30322 2.95267 5.96913 2.14533 7.91821C1.338 9.86728 1.12676 12.012 1.53834 14.0811C1.94991 16.1503 2.96581 18.0509 4.45757 19.5426C5.94933 21.0344 7.84995 22.0503 9.91908 22.4619C11.9882 22.8734 14.1329 22.6622 16.082 21.8549C18.0311 21.0475 19.697 19.6804 20.8691 17.9262C22.0411 16.1721 22.6667 14.1098 22.6667 12.0002C22.6667 9.17119 21.5429 6.45808 19.5425 4.45769C17.5421 2.4573 14.829 1.3335 12 1.3335ZM18.9667 8.42016L10.2067 17.1735L5.03338 12.0002C4.85657 11.8234 4.75724 11.5835 4.75724 11.3335C4.75724 11.0834 4.85657 10.8436 5.03338 10.6668C5.21019 10.49 5.45 10.3907 5.70005 10.3907C5.95009 10.3907 6.1899 10.49 6.36671 10.6668L10.22 14.5202L17.6467 7.10016C17.7343 7.01261 17.8382 6.94317 17.9526 6.89579C18.067 6.84841 18.1896 6.82402 18.3134 6.82402C18.4372 6.82402 18.5598 6.84841 18.6742 6.89579C18.7886 6.94317 18.8925 7.01261 18.98 7.10016C19.0676 7.18771 19.137 7.29164 19.1844 7.40603C19.2318 7.52042 19.2562 7.64302 19.2562 7.76683C19.2562 7.89064 19.2318 8.01324 19.1844 8.12763C19.137 8.24201 19.0676 8.34595 18.98 8.4335L18.9667 8.42016Z" fill="white"/>
</g>
<defs>
<clipPath id="clip0_69_1498">
<rect width="24" height="24" fill="white"/>
</clipPath>
</defs>
</svg>
