<svg width="28" height="28" viewBox="0 0 28 28" fill="none" xmlns="http://www.w3.org/2000/svg">
<path d="M3.5 15.1667C7.7 5.83333 20.3 5.83333 24.5 15.1667" stroke="#061633" stroke-width="2.5" stroke-linecap="round" stroke-linejoin="round"/>
<path d="M14 19.8333C13.5404 19.8333 13.0852 19.7428 12.6606 19.5669C12.236 19.391 11.8501 19.1332 11.5251 18.8082C11.2001 18.4832 10.9423 18.0974 10.7664 17.6727C10.5905 17.2481 10.5 16.793 10.5 16.3333C10.5 15.8737 10.5905 15.4186 10.7664 14.9939C10.9423 14.5693 11.2001 14.1835 11.5251 13.8585C11.8501 13.5335 12.236 13.2756 12.6606 13.0998C13.0852 12.9239 13.5404 12.8333 14 12.8333C14.9283 12.8333 15.8185 13.2021 16.4749 13.8585C17.1313 14.5148 17.5 15.4051 17.5 16.3333C17.5 17.2616 17.1313 18.1518 16.4749 18.8082C15.8185 19.4646 14.9283 19.8333 14 19.8333Z" stroke="#061633" stroke-width="2.5" stroke-linecap="round" stroke-linejoin="round"/>
</svg>
