<svg width="40" height="40" viewBox="0 0 40 40" fill="none" xmlns="http://www.w3.org/2000/svg">
<path d="M11.1107 37.9464H28.8892C32.3549 37.9464 34.0792 36.1886 34.0792 32.7064V17.5057H21.9585C19.8157 17.5057 18.8114 16.4843 18.8114 14.3414V2.05356H11.1107C7.66208 2.05356 5.92065 3.82784 5.92065 7.3107V32.7064C5.92065 36.205 7.66208 37.9464 11.1107 37.9464ZM22.0092 15.2121H33.8949C33.7778 14.5257 33.2921 13.8557 32.5057 13.0357L23.2642 3.64427C22.4942 2.8407 21.7914 2.35499 21.0878 2.23713V14.3086C21.0878 14.9107 21.4064 15.2121 22.0092 15.2121ZM19.9999 33.6943C19.6821 33.6943 19.4142 33.5771 19.0628 33.2757L14.4249 28.99C14.1571 28.7557 14.0064 28.4707 14.0064 28.0857C14.0064 27.4328 14.5085 26.9478 15.1949 26.9478C15.5135 26.9478 15.8485 27.0814 16.0992 27.3157L17.5057 28.7557L18.8449 30.1114L18.7278 27.5836V21.9428C18.7278 21.2728 19.3135 20.7036 19.9999 20.7036C20.7028 20.7036 21.2892 21.2728 21.2892 21.9428V27.5843L21.1721 30.1128L22.4942 28.7557L23.9171 27.3164C24.1542 27.0834 24.4725 26.9516 24.8049 26.9486C25.4907 26.9486 25.9935 27.4343 25.9935 28.0864C25.9935 28.4721 25.8592 28.7393 25.5749 28.9907L20.9378 33.2764C20.6021 33.5778 20.3178 33.6943 19.9999 33.6943Z" fill="#061633"/>
</svg>
