<svg width="32" height="33" viewBox="0 0 32 33" fill="none" xmlns="http://www.w3.org/2000/svg">
<path d="M3.42871 8.50003C3.42871 8.19693 3.54912 7.90624 3.76345 7.69191C3.97777 7.47759 4.26846 7.35718 4.57157 7.35718H25.143C25.4461 7.35718 25.7368 7.47759 25.9511 7.69191C26.1654 7.90624 26.2859 8.19693 26.2859 8.50003C26.2859 8.80314 26.1654 9.09383 25.9511 9.30816C25.7368 9.52248 25.4461 9.64289 25.143 9.64289H4.57157C4.26846 9.64289 3.97777 9.52248 3.76345 9.30816C3.54912 9.09383 3.42871 8.80314 3.42871 8.50003ZM3.42871 24.5C3.42871 24.1969 3.54912 23.9062 3.76345 23.6919C3.97777 23.4776 4.26846 23.3572 4.57157 23.3572H22.8573C23.1604 23.3572 23.4511 23.4776 23.6654 23.6919C23.8797 23.9062 24.0001 24.1969 24.0001 24.5C24.0001 24.8031 23.8797 25.0938 23.6654 25.3082C23.4511 25.5225 23.1604 25.6429 22.8573 25.6429H4.57157C4.26846 25.6429 3.97777 25.5225 3.76345 25.3082C3.54912 25.0938 3.42871 24.8031 3.42871 24.5ZM4.57157 15.3572C4.26846 15.3572 3.97777 15.4776 3.76345 15.6919C3.54912 15.9062 3.42871 16.1969 3.42871 16.5C3.42871 16.8031 3.54912 17.0938 3.76345 17.3082C3.97777 17.5225 4.26846 17.6429 4.57157 17.6429H27.4287C27.7318 17.6429 28.0225 17.5225 28.2368 17.3082C28.4512 17.0938 28.5716 16.8031 28.5716 16.5C28.5716 16.1969 28.4512 15.9062 28.2368 15.6919C28.0225 15.4776 27.7318 15.3572 27.4287 15.3572H4.57157Z" fill="white"/>
</svg>
