<svg width="32" height="33" viewBox="0 0 32 33" fill="none" xmlns="http://www.w3.org/2000/svg">
<path d="M6 10.375C6 10.1429 6.09578 9.92038 6.26627 9.75628C6.43675 9.59219 6.66799 9.5 6.90909 9.5H23.2727C23.5138 9.5 23.7451 9.59219 23.9156 9.75628C24.086 9.92038 24.1818 10.1429 24.1818 10.375C24.1818 10.6071 24.086 10.8296 23.9156 10.9937C23.7451 11.1578 23.5138 11.25 23.2727 11.25H6.90909C6.66799 11.25 6.43675 11.1578 6.26627 10.9937C6.09578 10.8296 6 10.6071 6 10.375ZM6 22.625C6 22.3929 6.09578 22.1704 6.26627 22.0063C6.43675 21.8422 6.66799 21.75 6.90909 21.75H21.4545C21.6957 21.75 21.9269 21.8422 22.0974 22.0063C22.2679 22.1704 22.3636 22.3929 22.3636 22.625C22.3636 22.8571 22.2679 23.0796 22.0974 23.2437C21.9269 23.4078 21.6957 23.5 21.4545 23.5H6.90909C6.66799 23.5 6.43675 23.4078 6.26627 23.2437C6.09578 23.0796 6 22.8571 6 22.625ZM6.90909 15.625C6.66799 15.625 6.43675 15.7172 6.26627 15.8813C6.09578 16.0454 6 16.2679 6 16.5C6 16.7321 6.09578 16.9546 6.26627 17.1187C6.43675 17.2828 6.66799 17.375 6.90909 17.375H25.0909C25.332 17.375 25.5632 17.2828 25.7337 17.1187C25.9042 16.9546 26 16.7321 26 16.5C26 16.2679 25.9042 16.0454 25.7337 15.8813C25.5632 15.7172 25.332 15.625 25.0909 15.625H6.90909Z" fill="white"/>
</svg>
