<svg width="28" height="28" viewBox="0 0 28 28" fill="none" xmlns="http://www.w3.org/2000/svg">
<path d="M4 7.875C4 7.64294 4.09578 7.42038 4.26627 7.25628C4.43675 7.09219 4.66799 7 4.90909 7H21.2727C21.5138 7 21.7451 7.09219 21.9156 7.25628C22.086 7.42038 22.1818 7.64294 22.1818 7.875C22.1818 8.10706 22.086 8.32962 21.9156 8.49372C21.7451 8.65781 21.5138 8.75 21.2727 8.75H4.90909C4.66799 8.75 4.43675 8.65781 4.26627 8.49372C4.09578 8.32962 4 8.10706 4 7.875ZM4 20.125C4 19.8929 4.09578 19.6704 4.26627 19.5063C4.43675 19.3422 4.66799 19.25 4.90909 19.25H19.4545C19.6957 19.25 19.9269 19.3422 20.0974 19.5063C20.2679 19.6704 20.3636 19.8929 20.3636 20.125C20.3636 20.3571 20.2679 20.5796 20.0974 20.7437C19.9269 20.9078 19.6957 21 19.4545 21H4.90909C4.66799 21 4.43675 20.9078 4.26627 20.7437C4.09578 20.5796 4 20.3571 4 20.125ZM4.90909 13.125C4.66799 13.125 4.43675 13.2172 4.26627 13.3813C4.09578 13.5454 4 13.7679 4 14C4 14.2321 4.09578 14.4546 4.26627 14.6187C4.43675 14.7828 4.66799 14.875 4.90909 14.875H23.0909C23.332 14.875 23.5632 14.7828 23.7337 14.6187C23.9042 14.4546 24 14.2321 24 14C24 13.7679 23.9042 13.5454 23.7337 13.3813C23.5632 13.2172 23.332 13.125 23.0909 13.125H4.90909Z" fill="#061633"/>
</svg>
