<svg width="24" height="24" viewBox="0 0 24 24" fill="none" xmlns="http://www.w3.org/2000/svg">
<path d="M12 22C11.45 22 10.9793 21.8043 10.588 21.413C10.1967 21.0217 10.0007 20.5507 10 20H14C14 20.55 13.8043 21.021 13.413 21.413C13.0217 21.805 12.5507 22.0007 12 22ZM18 13V10H15V8H18V5H20V8H23V10H20V13H18ZM4 19V17H6V10C6 8.61667 6.41667 7.38767 7.25 6.313C8.08333 5.23834 9.16667 4.534 10.5 4.2V3.5C10.5 3.08334 10.646 2.72934 10.938 2.438C11.23 2.14667 11.584 2.00067 12 2C12.416 1.99934 12.7703 2.14534 13.063 2.438C13.3557 2.73067 13.5013 3.08467 13.5 3.5V4.2C13.7333 4.26667 13.9627 4.33767 14.188 4.413C14.4133 4.48834 14.6257 4.584 14.825 4.7C14.2583 5.25 13.8127 5.89167 13.488 6.625C13.1633 7.35834 13.0007 8.15 13 9C13 10.5 13.475 11.8043 14.425 12.913C15.375 14.0217 16.5667 14.6923 18 14.925V17H20V19H4Z" fill="white"/>
</svg>
