<svg width="32" height="32" viewBox="0 0 32 32" fill="none" xmlns="http://www.w3.org/2000/svg">
<path d="M20.0002 18.6667C16.4402 18.6667 9.3335 20.44 9.3335 24V26.6667H30.6668V24C30.6668 20.44 23.5602 18.6667 20.0002 18.6667ZM8.00016 13.3334V9.33337H5.3335V13.3334H1.3335V16H5.3335V20H8.00016V16H12.0002V13.3334M20.0002 16C21.4147 16 22.7712 15.4381 23.7714 14.4379C24.7716 13.4377 25.3335 12.0812 25.3335 10.6667C25.3335 9.25222 24.7716 7.89566 23.7714 6.89547C22.7712 5.89528 21.4147 5.33337 20.0002 5.33337C18.5857 5.33337 17.2291 5.89528 16.2289 6.89547C15.2287 7.89566 14.6668 9.25222 14.6668 10.6667C14.6668 12.0812 15.2287 13.4377 16.2289 14.4379C17.2291 15.4381 18.5857 16 20.0002 16Z" fill="white"/>
</svg>
