<svg width="32" height="32" viewBox="0 0 32 32" fill="none" xmlns="http://www.w3.org/2000/svg">
<path d="M16 2.6665C13.5246 2.6665 11.1507 3.64983 9.40034 5.40017C7.65 7.15051 6.66667 9.52448 6.66667 11.9998V16.7038C6.66686 16.9107 6.61893 17.1147 6.52667 17.2998L4.23733 21.8772C4.1255 22.1008 4.0727 22.3493 4.08393 22.5991C4.09517 22.8489 4.17007 23.0916 4.30153 23.3043C4.43299 23.517 4.61663 23.6925 4.83502 23.8143C5.05342 23.936 5.29931 23.9999 5.54933 23.9998H26.4507C26.7007 23.9999 26.9466 23.936 27.165 23.8143C27.3834 23.6925 27.567 23.517 27.6985 23.3043C27.8299 23.0916 27.9048 22.8489 27.9161 22.5991C27.9273 22.3493 27.8745 22.1008 27.7627 21.8772L25.4747 17.2998C25.3819 17.1148 25.3336 16.9108 25.3333 16.7038V11.9998C25.3333 9.52448 24.35 7.15051 22.5997 5.40017C20.8493 3.64983 18.4754 2.6665 16 2.6665ZM16 27.9998C15.1725 28.0001 14.3653 27.7438 13.6895 27.2662C13.0138 26.7886 12.5027 26.1133 12.2267 25.3332H19.7733C19.4973 26.1133 18.9862 26.7886 18.3105 27.2662C17.6347 27.7438 16.8275 28.0001 16 27.9998Z" fill="white"/>
</svg>
