<svg width="26" height="27" viewBox="0 0 26 27" fill="none" xmlns="http://www.w3.org/2000/svg">
<rect y="0.5" width="26" height="26" rx="13" fill="#061633"/>
<path fill-rule="evenodd" clip-rule="evenodd" d="M5.87435 10.1288V8.19756C5.87435 6.51519 6.59084 4.90173 7.86621 3.71212C9.14157 2.5225 10.8713 1.85419 12.675 1.85419C14.4786 1.85419 16.2084 2.5225 17.4837 3.71212C18.7591 4.90173 19.4756 6.51519 19.4756 8.19756V10.1288C20.599 10.2068 21.3294 10.4041 21.8644 10.9031C22.75 11.7282 22.75 13.058 22.75 15.7156C22.75 18.3733 22.75 19.703 21.8644 20.5281C20.9798 21.3542 19.5542 21.3542 16.705 21.3542H8.64498C5.79577 21.3542 4.37015 21.3542 3.48557 20.5281C2.59998 19.703 2.59998 18.3733 2.59998 15.7156C2.59998 13.058 2.59998 11.7282 3.48557 10.9031C4.01954 10.4041 4.75099 10.2068 5.87435 10.1288ZM7.3856 8.19756C7.3856 6.88905 7.94287 5.63414 8.93482 4.70888C9.92677 3.78363 11.2721 3.26383 12.675 3.26383C14.0778 3.26383 15.4232 3.78363 16.4151 4.70888C17.4071 5.63414 17.9643 6.88905 17.9643 8.19756V10.0808C17.5785 10.0771 17.1594 10.0771 16.705 10.0771H8.64498C8.18959 10.0771 7.77147 10.0771 7.3856 10.0808V8.19756ZM8.64498 16.6554C8.91218 16.6554 9.16844 16.5564 9.35739 16.3801C9.54633 16.2039 9.65248 15.9649 9.65248 15.7156C9.65248 15.4664 9.54633 15.2274 9.35739 15.0511C9.16844 14.8749 8.91218 14.7759 8.64498 14.7759C8.37777 14.7759 8.12151 14.8749 7.93257 15.0511C7.74362 15.2274 7.63748 15.4664 7.63748 15.7156C7.63748 15.9649 7.74362 16.2039 7.93257 16.3801C8.12151 16.5564 8.37777 16.6554 8.64498 16.6554ZM12.675 16.6554C12.9422 16.6554 13.1984 16.5564 13.3874 16.3801C13.5763 16.2039 13.6825 15.9649 13.6825 15.7156C13.6825 15.4664 13.5763 15.2274 13.3874 15.0511C13.1984 14.8749 12.9422 14.7759 12.675 14.7759C12.4078 14.7759 12.1515 14.8749 11.9626 15.0511C11.7736 15.2274 11.6675 15.4664 11.6675 15.7156C11.6675 15.9649 11.7736 16.2039 11.9626 16.3801C12.1515 16.5564 12.4078 16.6554 12.675 16.6554ZM17.7125 15.7156C17.7125 15.9649 17.6063 16.2039 17.4174 16.3801C17.2284 16.5564 16.9722 16.6554 16.705 16.6554C16.4378 16.6554 16.1815 16.5564 15.9926 16.3801C15.8036 16.2039 15.6975 15.9649 15.6975 15.7156C15.6975 15.4664 15.8036 15.2274 15.9926 15.0511C16.1815 14.8749 16.4378 14.7759 16.705 14.7759C16.9722 14.7759 17.2284 14.8749 17.4174 15.0511C17.6063 15.2274 17.7125 15.4664 17.7125 15.7156Z" fill="white"/>
</svg>
