<svg width="32" height="32" viewBox="0 0 32 32" fill="none" xmlns="http://www.w3.org/2000/svg">
<path d="M14.1134 2.01957C13.8662 2.01874 13.6183 2.01889 13.3696 2.02001C12.1729 2.02557 10.9571 2.05701 9.73094 2.10251L10.0857 3.65832C11.3626 3.51395 12.7626 3.40645 14.1624 3.3527C14.9208 3.32357 15.6745 3.3082 16.4056 3.31207C18.5991 3.32351 20.5892 3.5077 21.8913 4.0122L22.448 4.22807L22.1994 4.77089C20.3831 8.7387 19.9631 12.5666 20.2477 16.3225C20.3882 11.8651 22.241 7.90064 24.6733 2.81826C21.3636 2.26826 17.8212 2.03189 14.1134 2.01951V2.01957ZM15.8655 4.44395C15.3193 4.44439 14.7624 4.45545 14.2056 4.47682C11.6011 4.57683 9.00563 4.88245 7.31406 5.23282C9.20363 8.73776 10.7322 12.2508 11.7193 15.6754C11.842 15.6714 11.9649 15.6723 12.0876 15.6783C12.3388 15.6906 12.5871 15.7246 12.8298 15.7776C11.8251 12.5653 10.6808 9.60264 9.25819 6.64445L8.93675 5.97607L9.66713 5.84682C11.5019 5.52195 13.3956 5.3962 15.198 5.39564C15.3182 5.39564 15.438 5.39614 15.5573 5.39714C16.7025 5.40714 17.8063 5.46639 18.8289 5.55557L19.5198 5.61589L19.3183 6.27945C18.1495 10.1271 17.9206 14.2593 18.5814 18.1908C18.5925 18.2009 18.6034 18.2112 18.6143 18.2214C18.8526 18.1379 19.0755 18.0528 19.2833 17.9618C18.7674 13.7497 18.996 9.40414 20.9226 4.88676C19.8475 4.61282 18.2086 4.46964 16.4077 4.44714C16.227 4.4449 16.0462 4.4438 15.8655 4.44395ZM24.9246 4.90551C22.9898 9.00276 21.6156 12.2861 21.3904 15.8307C22.6428 11.6556 25.0634 7.91289 27.8219 5.50832C26.8644 5.26947 25.8979 5.06838 24.9246 4.90551ZM6.4895 6.06357C5.317 6.30532 4.17163 6.6122 3.06375 7.0362C3.60288 7.5037 4.5775 8.37339 5.76 9.52926C6.30425 8.96907 6.85931 8.41564 7.43825 7.91239C7.13161 7.29123 6.81533 6.67489 6.4895 6.06357ZM15.3659 6.5312C14.5147 6.52707 13.6433 6.55145 12.7688 6.61201C12.6771 7.46714 12.1713 8.26714 11.5673 9.05389C12.5317 11.3332 13.3646 13.6591 14.1145 16.1285C15.2629 16.4673 16.3991 16.8677 17.3195 17.3475C16.9776 14.6939 17.0244 11.9748 17.4683 9.31576C16.6629 8.48389 16.2434 7.56014 16.2098 6.54451C15.9286 6.53702 15.6473 6.53258 15.3659 6.5312ZM26.7421 8.21776C25.1964 10.049 23.8345 12.3426 22.9064 14.8373C24.6104 12.4134 26.7058 10.5228 28.9363 9.18726C28.2096 8.85347 27.4781 8.53027 26.7421 8.21776ZM7.94581 8.9652C7.03369 9.78945 6.13244 10.7788 5.19388 11.7213C7.21194 12.9207 8.93081 14.3411 10.333 15.95C10.4201 15.9171 10.508 15.8876 10.5964 15.8606C9.94031 13.6046 9.04113 11.2961 7.94581 8.9652ZM22.5325 16.7622C21.5077 17.9989 20.5429 18.6519 19.2144 19.1728C19.3638 19.7491 19.1419 20.4106 18.631 20.9166C18.3305 21.2142 17.9529 21.5534 17.4008 21.7738C17.4804 21.821 17.5617 21.8653 17.6445 21.9068C18.4173 22.2924 19.7824 22.168 21.0508 21.5912C22.3151 21.0162 23.4446 20.0229 23.8633 19.0168C24.0731 18.4511 23.9233 18.1561 23.5559 17.7235C23.2944 17.4157 22.9125 17.1054 22.5325 16.7623V16.7622ZM11.9026 16.7988C11.2329 16.7927 10.5528 16.9859 9.99069 17.4088C9.19131 18.0103 8.57506 19.0828 8.56956 20.9047V20.9172L8.56894 20.9297C8.38644 24.766 8.66894 26.5359 9.22863 27.4963C9.72263 28.3439 10.5443 28.7496 11.7461 29.4959C11.8034 29.3455 11.863 29.1606 11.9189 28.9273C12.0613 28.3336 12.179 27.5182 12.2536 26.6163C12.4029 24.8127 12.3811 22.6469 12.1314 21.0885L11.9995 20.2641L12.813 20.4513C14.7889 20.9059 15.9193 20.9596 16.5755 20.8438C17.2319 20.7279 17.4543 20.4986 17.8393 20.1173C18.2012 19.7591 18.1944 19.6301 18.1178 19.4285C18.0411 19.2268 17.7335 18.8945 17.2116 18.5765C16.1676 17.9405 14.3938 17.3508 12.7357 16.911C12.4637 16.839 12.1839 16.8014 11.9026 16.7988ZM23.7213 21.1373C23.0955 21.747 22.3254 22.2474 21.5165 22.6153C20.2051 23.2116 18.7626 23.4844 17.5658 23.0873C17.1433 23.2446 16.8979 23.4253 16.7741 23.5748C16.6042 23.7801 16.5936 23.9311 16.6511 24.1473C16.7087 24.3636 16.8802 24.6203 17.0923 24.8051C17.3044 24.9898 17.5564 25.0858 17.6523 25.0903C20.5769 25.2292 21.8426 24.3899 23.4196 23.4164C23.8794 23.1325 24.0554 22.5575 24.0114 21.9832C23.9893 21.6961 23.9058 21.4263 23.8093 21.2563C23.7854 21.213 23.7558 21.1729 23.7213 21.1373ZM13.3346 21.7058C13.5051 23.2726 13.5079 25.1004 13.3748 26.7091C13.2968 27.6511 13.1763 28.5078 13.0129 29.1894C12.9419 29.4861 12.8637 29.7491 12.7692 29.9806L21.9378 29.5766C21.8343 29.1923 21.7288 28.8063 21.6233 28.4202C21.2711 28.5375 20.911 28.6298 20.5458 28.6967L20.5486 28.7423L20.0288 28.7747C19.7088 28.8131 19.3756 28.8343 19.0299 28.8367L13.7886 29.1623L13.9444 28.4369C14.4411 26.124 14.4869 24.0876 14.1806 21.8598C13.8976 21.814 13.6155 21.7626 13.3346 21.7058H13.3346ZM15.3329 21.9986C15.5796 23.9944 15.5499 25.8992 15.1825 27.9486L16.3865 27.8738C16.1976 27.5952 16.0679 27.2809 16.0053 26.9502C15.9243 26.5202 15.9693 26.0416 16.2506 25.6458C16.2631 25.6283 16.2765 25.6115 16.2898 25.5945C15.9619 25.2917 15.6881 24.9031 15.5639 24.4368C15.4318 23.9403 15.5143 23.3324 15.9075 22.8574C16.0374 22.7005 16.1945 22.5589 16.3789 22.4314C16.2158 22.3014 16.0728 22.1636 15.9493 22.02C15.7578 22.0213 15.5528 22.0142 15.3329 21.9986ZM23.6245 24.6101C22.1585 25.501 20.5114 26.3524 17.5989 26.2141C17.5038 26.2095 17.4093 26.1966 17.3165 26.1757C17.2394 26.2103 17.1983 26.2542 17.1676 26.2974C17.1074 26.3821 17.0719 26.5349 17.1108 26.7419C17.1888 27.1561 17.5811 27.61 17.9464 27.6525C20.533 27.9533 22.3201 27.1071 23.4053 26.1227C23.9053 25.6691 23.9095 25.379 23.8359 25.0633C23.799 24.9056 23.7178 24.7527 23.6245 24.6101ZM23.2068 27.6765C23.0332 27.7853 22.8549 27.8867 22.6726 27.9803C22.7758 28.3585 22.8791 28.7366 22.9812 29.1149L24.2262 28.8916C23.9049 28.6175 23.6536 28.332 23.4518 28.0481C23.3617 27.9213 23.2823 27.7981 23.2068 27.6765Z" fill="white"/>
</svg>
