<svg width="40" height="40" viewBox="0 0 40 40" fill="none" xmlns="http://www.w3.org/2000/svg">
<path d="M30.5333 15.5556C30.5333 13.1004 29.488 10.8782 27.8005 9.27111C26.1112 7.66222 23.7779 6.66667 21.2 6.66667C18.6221 6.66667 16.2888 7.66222 14.5995 9.27111C12.912 10.8782 11.8667 13.1004 11.8667 15.5556C11.8667 18.0107 12.912 20.2329 14.5995 21.84C16.2888 23.4489 18.6221 24.4444 21.2 24.4444C23.7779 24.4444 26.1112 23.4489 27.8005 21.84C28.6683 21.0156 29.3564 20.036 29.8254 18.9575C30.2944 17.879 30.5349 16.7229 30.5333 15.5556ZM10 33.3333C10 35.1111 14.2 36.8889 21.2 36.8889C27.7669 36.8889 32.4 35.1111 32.4 33.3333C32.4 29.7778 28.0059 26.2222 21.2 26.2222C14.2 26.2222 10 29.7778 10 33.3333Z" fill="white"/>
</svg>
