<svg width="32" height="32" viewBox="0 0 32 32" fill="none" xmlns="http://www.w3.org/2000/svg">
<path d="M21.2 11.6863C21.2 9.93163 20.528 8.3434 19.4432 7.19479C18.3572 6.0449 16.8572 5.33337 15.2 5.33337C13.5428 5.33337 12.0428 6.0449 10.9568 7.19479C9.872 8.3434 9.2 9.93163 9.2 11.6863C9.2 13.441 9.872 15.0292 10.9568 16.1778C12.0428 17.3277 13.5428 18.0393 15.2 18.0393C16.8572 18.0393 18.3572 17.3277 19.4432 16.1778C20.001 15.5886 20.4434 14.8885 20.7449 14.1177C21.0464 13.3469 21.201 12.5206 21.2 11.6863ZM8 24.3922C8 25.6628 10.7 26.9334 15.2 26.9334C19.4216 26.9334 22.4 25.6628 22.4 24.3922C22.4 21.851 19.5752 19.3098 15.2 19.3098C10.7 19.3098 8 21.851 8 24.3922Z" fill="white"/>
</svg>
