<svg width="32" height="33" viewBox="0 0 32 33" fill="none" xmlns="http://www.w3.org/2000/svg">
<path d="M12 14.248L13.3825 17.0117H10.6175L12 14.248ZM29 7.01172V27.0117C29.0001 27.1823 28.9566 27.35 28.8736 27.499C28.7907 27.648 28.671 27.7733 28.5259 27.863C28.3808 27.9527 28.2153 28.0038 28.0449 28.0114C27.8745 28.0191 27.705 27.983 27.5525 27.9067L24 26.1292L20.4475 27.9067C20.3086 27.9762 20.1554 28.0124 20 28.0124C19.8446 28.0124 19.6914 27.9762 19.5525 27.9067L16 26.1292L12.4475 27.9067C12.3086 27.9762 12.1554 28.0124 12 28.0124C11.8446 28.0124 11.6914 27.9762 11.5525 27.9067L8 26.1292L4.4475 27.9067C4.29499 27.983 4.12549 28.0191 3.95511 28.0114C3.78474 28.0038 3.61916 27.9527 3.4741 27.863C3.32904 27.7733 3.20934 27.648 3.12636 27.499C3.04337 27.35 2.99988 27.1823 3 27.0117V7.01172C3 6.48129 3.21071 5.97258 3.58579 5.59751C3.96086 5.22243 4.46957 5.01172 5 5.01172H27C27.5304 5.01172 28.0391 5.22243 28.4142 5.59751C28.7893 5.97258 29 6.48129 29 7.01172ZM16.895 19.5642L12.895 11.5642C12.8121 11.3978 12.6844 11.2578 12.5263 11.16C12.3682 11.0621 12.1859 11.0103 12 11.0103C11.8141 11.0103 11.6318 11.0621 11.4737 11.16C11.3156 11.2578 11.1879 11.3978 11.105 11.5642L7.105 19.5642C7.04623 19.6818 7.01119 19.8097 7.00188 19.9408C6.99256 20.0719 7.00916 20.2035 7.05071 20.3281C7.09226 20.4528 7.15797 20.5681 7.24406 20.6673C7.33016 20.7666 7.43497 20.848 7.5525 20.9067C7.67003 20.9655 7.79799 21.0005 7.92907 21.0098C8.06014 21.0192 8.19177 21.0026 8.31643 20.961C8.44109 20.9195 8.55635 20.8538 8.65562 20.7677C8.75489 20.6816 8.83623 20.5768 8.895 20.4592L9.6175 19.0117H14.3825L15.105 20.4592C15.1638 20.5768 15.2451 20.6816 15.3444 20.7677C15.4436 20.8538 15.5589 20.9195 15.6836 20.961C15.8082 21.0026 15.9399 21.0192 16.0709 21.0098C16.202 21.0005 16.33 20.9655 16.4475 20.9067C16.565 20.848 16.6698 20.7666 16.7559 20.6673C16.842 20.5681 16.9077 20.4528 16.9493 20.3281C16.9908 20.2035 17.0074 20.0719 16.9981 19.9408C16.9888 19.8097 16.9538 19.6818 16.895 19.5642ZM26 16.0117C26 15.7465 25.8946 15.4921 25.7071 15.3046C25.5196 15.1171 25.2652 15.0117 25 15.0117H23V13.0117C23 12.7465 22.8946 12.4921 22.7071 12.3046C22.5196 12.1171 22.2652 12.0117 22 12.0117C21.7348 12.0117 21.4804 12.1171 21.2929 12.3046C21.1054 12.4921 21 12.7465 21 13.0117V15.0117H19C18.7348 15.0117 18.4804 15.1171 18.2929 15.3046C18.1054 15.4921 18 15.7465 18 16.0117C18 16.2769 18.1054 16.5313 18.2929 16.7188C18.4804 16.9064 18.7348 17.0117 19 17.0117H21V19.0117C21 19.2769 21.1054 19.5313 21.2929 19.7188C21.4804 19.9064 21.7348 20.0117 22 20.0117C22.2652 20.0117 22.5196 19.9064 22.7071 19.7188C22.8946 19.5313 23 19.2769 23 19.0117V17.0117H25C25.2652 17.0117 25.5196 16.9064 25.7071 16.7188C25.8946 16.5313 26 16.2769 26 16.0117Z" fill="white"/>
</svg>
