<svg width="29" height="28" viewBox="0 0 29 28" fill="none" xmlns="http://www.w3.org/2000/svg">
<path d="M11 12.4567L12.2097 14.875H9.79031L11 12.4567ZM25.875 6.125V23.625C25.8751 23.7742 25.837 23.921 25.7644 24.0514C25.6918 24.1817 25.5871 24.2914 25.4602 24.3699C25.3332 24.4483 25.1884 24.493 25.0393 24.4997C24.8902 24.5064 24.7419 24.4749 24.6084 24.4081L21.5 22.8528L18.3916 24.4081C18.27 24.469 18.1359 24.5006 18 24.5006C17.8641 24.5006 17.73 24.469 17.6084 24.4081L14.5 22.8528L11.3916 24.4081C11.27 24.469 11.1359 24.5006 11 24.5006C10.8641 24.5006 10.73 24.469 10.6084 24.4081L7.5 22.8528L4.39156 24.4081C4.25811 24.4749 4.1098 24.5064 3.96072 24.4997C3.81165 24.493 3.66676 24.4483 3.53984 24.3699C3.41291 24.2914 3.30817 24.1817 3.23556 24.0514C3.16295 23.921 3.12489 23.7742 3.125 23.625V6.125C3.125 5.66087 3.30937 5.21575 3.63756 4.88756C3.96575 4.55937 4.41087 4.375 4.875 4.375H24.125C24.5891 4.375 25.0342 4.55937 25.3624 4.88756C25.6906 5.21575 25.875 5.66087 25.875 6.125ZM15.2831 17.1084L11.7831 10.1084C11.7106 9.96283 11.5988 9.84034 11.4605 9.75472C11.3222 9.6691 11.1627 9.62374 11 9.62374C10.8373 9.62374 10.6778 9.6691 10.5395 9.75472C10.4012 9.84034 10.2894 9.96283 10.2169 10.1084L6.71688 17.1084C6.66545 17.2113 6.63479 17.3232 6.62664 17.4379C6.61849 17.5526 6.63301 17.6678 6.66937 17.7769C6.70573 17.886 6.76322 17.9868 6.83856 18.0737C6.91389 18.1605 7.0056 18.2317 7.10844 18.2831C7.21128 18.3345 7.32324 18.3652 7.43793 18.3734C7.55262 18.3815 7.6678 18.367 7.77688 18.3306C7.88596 18.2943 7.98681 18.2368 8.07367 18.1614C8.16053 18.0861 8.23171 17.9944 8.28313 17.8916L8.91531 16.625H13.0847L13.7169 17.8916C13.7683 17.9944 13.8395 18.0861 13.9263 18.1614C14.0132 18.2368 14.114 18.2943 14.2231 18.3306C14.3322 18.367 14.4474 18.3815 14.5621 18.3734C14.6768 18.3652 14.7887 18.3345 14.8916 18.2831C14.9944 18.2317 15.0861 18.1605 15.1614 18.0737C15.2368 17.9868 15.2943 17.886 15.3306 17.7769C15.367 17.6678 15.3815 17.5526 15.3734 17.4379C15.3652 17.3232 15.3345 17.2113 15.2831 17.1084ZM23.25 14C23.25 13.7679 23.1578 13.5454 22.9937 13.3813C22.8296 13.2172 22.6071 13.125 22.375 13.125H20.625V11.375C20.625 11.1429 20.5328 10.9204 20.3687 10.7563C20.2046 10.5922 19.9821 10.5 19.75 10.5C19.5179 10.5 19.2954 10.5922 19.1313 10.7563C18.9672 10.9204 18.875 11.1429 18.875 11.375V13.125H17.125C16.8929 13.125 16.6704 13.2172 16.5063 13.3813C16.3422 13.5454 16.25 13.7679 16.25 14C16.25 14.2321 16.3422 14.4546 16.5063 14.6187C16.6704 14.7828 16.8929 14.875 17.125 14.875H18.875V16.625C18.875 16.8571 18.9672 17.0796 19.1313 17.2437C19.2954 17.4078 19.5179 17.5 19.75 17.5C19.9821 17.5 20.2046 17.4078 20.3687 17.2437C20.5328 17.0796 20.625 16.8571 20.625 16.625V14.875H22.375C22.6071 14.875 22.8296 14.7828 22.9937 14.6187C23.1578 14.4546 23.25 14.2321 23.25 14Z" fill="#061633"/>
</svg>
