<svg width="24" height="24" viewBox="0 0 24 24" fill="none" xmlns="http://www.w3.org/2000/svg">
<path d="M9.2483 12.3517C9.13761 12.2371 9.00519 12.1457 8.85879 12.0828C8.71238 12.0199 8.55492 11.9868 8.39558 11.9854C8.23625 11.984 8.07823 12.0144 7.93076 12.0747C7.78328 12.135 7.6493 12.2242 7.53663 12.3368C7.42396 12.4495 7.33485 12.5835 7.27452 12.731C7.21418 12.8784 7.18382 13.0364 7.1852 13.1958C7.18659 13.3551 7.21969 13.5126 7.28258 13.659C7.34547 13.8054 7.43689 13.9378 7.5515 14.0485L11.1515 17.6485C11.3765 17.8735 11.6817 17.9998 11.9999 17.9998C12.3181 17.9998 12.6233 17.8735 12.8483 17.6485L16.4483 14.0485C16.6669 13.8222 16.7878 13.5191 16.7851 13.2044C16.7824 12.8898 16.6562 12.5888 16.4337 12.3663C16.2112 12.1438 15.9102 12.0176 15.5956 12.0149C15.2809 12.0122 14.9778 12.1331 14.7515 12.3517L13.1999 13.9033V7.2001H19.1999C19.8364 7.2001 20.4469 7.45295 20.897 7.90304C21.347 8.35313 21.5999 8.96358 21.5999 9.6001V18.0001C21.5999 18.6366 21.347 19.2471 20.897 19.6972C20.4469 20.1472 19.8364 20.4001 19.1999 20.4001H4.7999C4.16338 20.4001 3.55293 20.1472 3.10285 19.6972C2.65276 19.2471 2.3999 18.6366 2.3999 18.0001V9.6001C2.3999 8.96358 2.65276 8.35313 3.10285 7.90304C3.55293 7.45295 4.16338 7.2001 4.7999 7.2001H10.7999V13.9033L9.2483 12.3517ZM10.7999 4.8001C10.7999 4.48184 10.9263 4.17661 11.1514 3.95157C11.3764 3.72653 11.6816 3.6001 11.9999 3.6001C12.3182 3.6001 12.6234 3.72653 12.8484 3.95157C13.0735 4.17661 13.1999 4.48184 13.1999 4.8001V7.2001H10.7999V4.8001Z" fill="white"/>
</svg>
