<svg width="32" height="32" viewBox="0 0 32 32" fill="none" xmlns="http://www.w3.org/2000/svg">
<path d="M17.3335 25.3337C17.3335 26.8003 17.7335 28.1603 18.4135 29.3337H8.00016C6.52016 29.3337 5.3335 28.147 5.3335 26.667V5.33366C5.3335 4.62641 5.61445 3.94814 6.11454 3.44804C6.61464 2.94794 7.29292 2.66699 8.00016 2.66699H9.3335V12.0003L12.6668 10.0003L16.0002 12.0003V2.66699H24.0002C24.7074 2.66699 25.3857 2.94794 25.8858 3.44804C26.3859 3.94814 26.6668 4.62641 26.6668 5.33366V17.4537C26.2268 17.387 25.7868 17.3337 25.3335 17.3337C20.9202 17.3337 17.3335 20.9203 17.3335 25.3337ZM26.6668 24.0003V20.0003H24.0002V24.0003H20.0002V26.667H24.0002V30.667H26.6668V26.667H30.6668V24.0003H26.6668Z" fill="white"/>
</svg>
