<svg width="20" height="21" viewBox="0 0 20 21" fill="none" xmlns="http://www.w3.org/2000/svg">
<path d="M12.9167 12.1667H12.2583L12.025 11.9417C12.8699 10.9617 13.3343 9.71058 13.3333 8.41667C13.3333 7.34535 13.0157 6.2981 12.4205 5.40733C11.8253 4.51656 10.9793 3.8223 9.98954 3.41232C8.99977 3.00235 7.91066 2.89508 6.85993 3.10408C5.8092 3.31309 4.84404 3.82897 4.08651 4.58651C3.32897 5.34404 2.81309 6.3092 2.60408 7.35993C2.39508 8.41066 2.50235 9.49977 2.91232 10.4895C3.3223 11.4793 4.01656 12.3253 4.90733 12.9205C5.7981 13.5157 6.84535 13.8333 7.91667 13.8333C9.25834 13.8333 10.4917 13.3417 11.4417 12.525L11.6667 12.7583V13.4167L15.8333 17.575L17.075 16.3333L12.9167 12.1667ZM7.91667 12.1667C5.84167 12.1667 4.16667 10.4917 4.16667 8.41667C4.16667 6.34167 5.84167 4.66667 7.91667 4.66667C9.99167 4.66667 11.6667 6.34167 11.6667 8.41667C11.6667 10.4917 9.99167 12.1667 7.91667 12.1667Z" fill="#757575"/>
</svg>
