<svg width="32" height="32" viewBox="0 0 32 32" fill="none" xmlns="http://www.w3.org/2000/svg">
<path d="M29.3332 17.9706V24C29.3332 25.0608 28.9117 26.0782 28.1616 26.8284C27.4115 27.5785 26.394 28 25.3332 28H6.6665C5.60564 28 4.58822 27.5785 3.83808 26.8284C3.08793 26.0782 2.6665 25.0608 2.6665 24V17.9706L3.40384 18.34C7.31174 20.3083 11.6266 21.3333 16.0022 21.3328C20.3778 21.3324 24.6924 20.3064 28.5998 18.3373L29.3332 17.9706ZM18.6665 2.66663C19.7274 2.66663 20.7448 3.08805 21.4949 3.8382C22.2451 4.58834 22.6665 5.60576 22.6665 6.66663V7.99996H25.3332C26.394 7.99996 27.4115 8.42139 28.1616 9.17153C28.9117 9.92168 29.3332 10.9391 29.3332 12V14.9893L27.4038 15.9546C23.9519 17.6948 20.1475 18.6218 16.2819 18.6648C12.4164 18.7078 8.59231 17.8656 5.1025 16.2026L4.23984 15.776L2.6665 14.9893V12C2.6665 10.9391 3.08793 9.92168 3.83808 9.17153C4.58822 8.42139 5.60564 7.99996 6.6665 7.99996H9.33317V6.66663C9.33317 5.60576 9.7546 4.58834 10.5047 3.8382C11.2549 3.08805 12.2723 2.66663 13.3332 2.66663H18.6665ZM15.9998 13.3333C15.6462 13.3333 15.3071 13.4738 15.057 13.7238C14.807 13.9739 14.6665 14.313 14.6665 14.6666C14.6656 14.8417 14.6992 15.0153 14.7654 15.1774C14.8316 15.3395 14.9291 15.487 15.0523 15.6114C15.1755 15.7358 15.322 15.8348 15.4834 15.9026C15.6449 15.9704 15.8181 16.0058 15.9932 16.0066C16.1683 16.0075 16.3418 15.9739 16.5039 15.9077C16.666 15.8415 16.8135 15.744 16.9379 15.6208C17.0624 15.4976 17.1613 15.3511 17.2291 15.1897C17.2969 15.0283 17.3323 14.8551 17.3332 14.68C17.3332 13.9306 16.7358 13.3333 15.9998 13.3333ZM18.6665 5.33329H13.3332C12.9795 5.33329 12.6404 5.47377 12.3904 5.72382C12.1403 5.97387 11.9998 6.313 11.9998 6.66663V7.99996H19.9998V6.66663C19.9998 6.313 19.8594 5.97387 19.6093 5.72382C19.3593 5.47377 19.0201 5.33329 18.6665 5.33329Z" fill="white"/>
</svg>
