<svg width="25" height="24" viewBox="0 0 25 24" fill="none" xmlns="http://www.w3.org/2000/svg">
<g clip-path="url(#clip0_69_376)">
<path d="M20.735 5.68609C21.167 4.49109 20.009 3.33309 18.814 3.76609L4.20904 9.04809C3.01004 9.48209 2.86504 11.1181 3.96804 11.7571L8.63004 14.4561L12.793 10.2931C12.9816 10.1109 13.2342 10.0101 13.4964 10.0124C13.7586 10.0147 14.0095 10.1199 14.1949 10.3053C14.3803 10.4907 14.4854 10.7415 14.4877 11.0037C14.49 11.2659 14.3892 11.5185 14.207 11.7071L10.044 15.8701L12.744 20.5321C13.382 21.6351 15.018 21.4891 15.452 20.2911L20.735 5.68609Z" fill="white"/>
</g>
<defs>
<clipPath id="clip0_69_376">
<rect width="24" height="24" fill="white" transform="translate(0.5)"/>
</clipPath>
</defs>
</svg>
