<svg width="32" height="32" viewBox="0 0 32 32" fill="none" xmlns="http://www.w3.org/2000/svg">
<g clip-path="url(#clip0_69_561)">
<path d="M24.8889 3.55554H10.6667C10.1952 3.55554 9.74301 3.74284 9.40962 4.07624C9.07622 4.40964 8.88892 4.86182 8.88892 5.33332V11.5555H16.4445L13.44 8.6311C13.2944 8.46105 13.2183 8.24232 13.227 8.01861C13.2356 7.79489 13.3283 7.58268 13.4866 7.42437C13.6449 7.26607 13.8572 7.17333 14.0809 7.16469C14.3046 7.15605 14.5233 7.23214 14.6934 7.37776L19.84 12.5244L14.6934 17.6711C14.5233 17.8167 14.3046 17.8928 14.0809 17.8842C13.8572 17.8755 13.6449 17.7828 13.4866 17.6245C13.3283 17.4662 13.2356 17.254 13.227 17.0303C13.2183 16.8065 13.2944 16.5878 13.44 16.4178L16.4445 13.3333H8.88892V26.6667C8.88892 27.1381 9.07622 27.5903 9.40962 27.9237C9.74301 28.2571 10.1952 28.4444 10.6667 28.4444H24.8889C25.3604 28.4444 25.8126 28.2571 26.146 27.9237C26.4794 27.5903 26.6667 27.1381 26.6667 26.6667V5.33332C26.6667 4.86182 26.4794 4.40964 26.146 4.07624C25.8126 3.74284 25.3604 3.55554 24.8889 3.55554Z" fill="white"/>
<path d="M8.88891 11.5555H3.55558C3.31983 11.5555 3.09374 11.6492 2.92704 11.8159C2.76034 11.9826 2.66669 12.2087 2.66669 12.4444C2.66669 12.6802 2.76034 12.9063 2.92704 13.073C3.09374 13.2397 3.31983 13.3333 3.55558 13.3333H8.88891V11.5555Z" fill="white"/>
</g>
<defs>
<clipPath id="clip0_69_561">
<rect width="32" height="32" fill="white"/>
</clipPath>
</defs>
</svg>
