<svg width="40" height="40" viewBox="0 0 40 40" fill="none" xmlns="http://www.w3.org/2000/svg">
<path d="M27.9167 36.9333L23.3334 31.9333L25.2667 30L27.9167 32.65L33.9001 26.6667L35.8334 29.0167L27.9167 36.9333ZM10.0001 36.6667C9.11603 36.6667 8.26818 36.3155 7.64306 35.6904C7.01794 35.0652 6.66675 34.2174 6.66675 33.3333V6.66668C6.66675 4.81668 8.15008 3.33334 10.0001 3.33334H11.6667V15L15.8334 12.5L20.0001 15V3.33334H30.0001C30.8841 3.33334 31.732 3.68453 32.3571 4.30965C32.9822 4.93478 33.3334 5.78262 33.3334 6.66668V22.2333C31.4055 21.5539 29.3157 21.4811 27.3451 22.0247C25.3745 22.5683 23.6177 23.7023 22.3108 25.2742C21.0039 26.846 20.2097 28.7804 20.035 30.8171C19.8603 32.8538 20.3134 34.8952 21.3334 36.6667H10.0001Z" fill="white"/>
</svg>
