<svg width="32" height="32" viewBox="0 0 32 32" fill="none" xmlns="http://www.w3.org/2000/svg">
<path d="M8 29.3332C7.26667 29.3332 6.63911 29.0723 6.11734 28.5505C5.59556 28.0287 5.33422 27.4007 5.33334 26.6665V5.33317C5.33334 4.59984 5.59467 3.97228 6.11734 3.4505C6.64 2.92873 7.26756 2.66739 8 2.6665H24C24.7333 2.6665 25.3613 2.92784 25.884 3.4505C26.4067 3.97317 26.6676 4.60073 26.6667 5.33317V26.6665C26.6667 27.3998 26.4058 28.0278 25.884 28.5505C25.3622 29.0732 24.7342 29.3341 24 29.3332H8ZM14.6667 14.6665L18 12.6665L21.3333 14.6665V5.33317H14.6667V14.6665Z" fill="white"/>
</svg>
