<svg width="32" height="32" viewBox="0 0 32 32" fill="none" xmlns="http://www.w3.org/2000/svg">
<g clip-path="url(#clip0_69_613)">
<path d="M10.4001 22C10.2806 22 10.1611 22.0219 10.0471 22.0681C9.39908 22.3312 8.71758 22.5 8.00008 22.5C7.28258 22.5 6.60108 22.3312 5.95258 22.0681C5.83858 22.0219 5.71958 22 5.60008 22C2.49708 22 -0.0164192 25.155 8.07739e-05 29.0387C0.00708077 30.68 1.08658 32 2.40008 32H13.6001C14.9136 32 15.9931 30.68 16.0001 29.0387C16.0166 25.155 13.5031 22 10.4001 22ZM8.00008 20C10.6511 20 12.8001 17.3138 12.8001 14C12.8001 10.6862 10.6511 8 8.00008 8C5.34908 8 3.20008 10.6862 3.20008 14C3.20008 17.3138 5.34908 20 8.00008 20ZM29.6001 0H10.4001C9.07658 0 8.00008 1.39062 8.00008 3.09938V6C9.17108 6 10.2551 6.42375 11.2001 7.1125V4H28.8001V22H25.6001V18H19.2001V22H15.3881C16.3431 23.0431 17.0441 24.4206 17.3726 26H29.6001C30.9236 26 32.0001 24.6094 32.0001 22.9006V3.09938C32.0001 1.39062 30.9236 0 29.6001 0Z" fill="white"/>
</g>
<defs>
<clipPath id="clip0_69_613">
<rect width="32" height="32" fill="white"/>
</clipPath>
</defs>
</svg>
