<svg width="28" height="29" viewBox="0 0 28 29" fill="none" xmlns="http://www.w3.org/2000/svg">
<path d="M19.8333 4.3967C21.6068 5.42067 23.0796 6.89346 24.1036 8.66703C25.1275 10.4406 25.6666 12.4525 25.6666 14.5004C25.6666 16.5483 25.1275 18.5602 24.1035 20.3338C23.0795 22.1073 21.6067 23.5801 19.8331 24.604C18.0595 25.628 16.0477 26.167 13.9997 26.167C11.9518 26.167 9.93994 25.6279 8.16639 24.6039C6.39284 23.5798 4.92009 22.107 3.89616 20.3334C2.87223 18.5598 2.3332 16.548 2.33325 14.5L2.33909 14.122C2.40442 12.1072 2.99072 10.1437 4.04083 8.42286C5.09094 6.70207 6.56901 5.28273 8.33096 4.30323C10.0929 3.32374 12.0786 2.8175 14.0944 2.83388C16.1103 2.85026 18.0875 3.3887 19.8333 4.3967ZM13.9999 7.50004C13.6905 7.50004 13.3938 7.62295 13.175 7.84175C12.9562 8.06054 12.8333 8.35728 12.8333 8.6667V13.8747L9.85242 15.8627C9.61462 16.0213 9.44334 16.2617 9.37108 16.5383C9.29882 16.8149 9.33061 17.1084 9.46042 17.363L9.52925 17.4797C9.61418 17.6073 9.72341 17.7169 9.85071 17.8022C9.978 17.8876 10.1209 17.947 10.2711 17.9771C10.4214 18.0072 10.5761 18.0075 10.7265 17.9778C10.8769 17.9481 11.0199 17.889 11.1474 17.804L14.6789 15.4497L14.7804 15.368L14.8668 15.2805L14.9543 15.1709L15.0149 15.0775L15.0558 14.9959L15.1153 14.8419L15.1514 14.6844L15.1631 14.5887L15.1666 14.5V8.6667C15.1666 8.35728 15.0437 8.06054 14.8249 7.84175C14.6061 7.62295 14.3093 7.50004 13.9999 7.50004Z" fill="#061633"/>
</svg>
