<svg width="200" height="200" viewBox="0 0 200 200" fill="none" xmlns="http://www.w3.org/2000/svg">
<path fill-rule="evenodd" clip-rule="evenodd" d="M100 16.6666C53.975 16.6666 16.6666 53.975 16.6666 100C16.6666 146.025 53.975 183.333 100 183.333C146.025 183.333 183.333 146.025 183.333 100C183.333 53.975 146.025 16.6666 100 16.6666ZM70.8333 79.1666C70.8333 75.3364 71.5877 71.5437 73.0535 68.005C74.5192 64.4664 76.6676 61.2511 79.376 58.5427C82.0844 55.8343 85.2997 53.6859 88.8384 52.2201C92.377 50.7544 96.1697 50 100 50C103.83 50 107.623 50.7544 111.162 52.2201C114.7 53.6859 117.916 55.8343 120.624 58.5427C123.332 61.2511 125.481 64.4664 126.946 68.005C128.412 71.5437 129.167 75.3364 129.167 79.1666C129.167 86.9021 126.094 94.3208 120.624 99.7906C115.154 105.26 107.735 108.333 100 108.333C92.2645 108.333 84.8458 105.26 79.376 99.7906C73.9062 94.3208 70.8333 86.9021 70.8333 79.1666ZM152.15 141.533C145.912 149.38 137.982 155.716 128.951 160.068C119.921 164.42 110.024 166.676 100 166.667C89.9757 166.676 80.0788 164.42 71.0485 160.068C62.0183 155.716 54.088 149.38 47.85 141.533C61.3583 131.842 79.7916 125 100 125C120.208 125 138.642 131.842 152.15 141.533Z" fill="#061633"/>
</svg>
