<svg width="28" height="26" viewBox="0 0 28 26" fill="none" xmlns="http://www.w3.org/2000/svg">
<path d="M4 5.5C4 4.04131 4.57946 2.64236 5.61091 1.61091C6.64236 0.579463 8.04131 0 9.5 0C10.9587 0 12.3576 0.579463 13.3891 1.61091C14.4205 2.64236 15 4.04131 15 5.5C15 6.95869 14.4205 8.35764 13.3891 9.38909C12.3576 10.4205 10.9587 11 9.5 11C8.04131 11 6.64236 10.4205 5.61091 9.38909C4.57946 8.35764 4 6.95869 4 5.5ZM17 8.5C17 7.90905 17.1164 7.32389 17.3425 6.77792C17.5687 6.23196 17.9002 5.73588 18.318 5.31802C18.7359 4.90016 19.232 4.56869 19.7779 4.34254C20.3239 4.1164 20.9091 4 21.5 4C22.0909 4 22.6761 4.1164 23.2221 4.34254C23.768 4.56869 24.2641 4.90016 24.682 5.31802C25.0998 5.73588 25.4313 6.23196 25.6575 6.77792C25.8836 7.32389 26 7.90905 26 8.5C26 9.69347 25.5259 10.8381 24.682 11.682C23.8381 12.5259 22.6935 13 21.5 13C20.3065 13 19.1619 12.5259 18.318 11.682C17.4741 10.8381 17 9.69347 17 8.5ZM0 22.5C3.75443e-08 19.9804 1.00089 17.5641 2.78249 15.7825C4.56408 14.0009 6.98044 13 9.5 13C12.0196 13 14.4359 14.0009 16.2175 15.7825C17.9991 17.5641 19 19.9804 19 22.5V22.504L18.9987 22.6627C18.9958 22.8322 18.9499 22.9983 18.8653 23.1452C18.7806 23.2922 18.66 23.4152 18.5147 23.5027C15.7936 25.1413 12.6764 26.0049 9.5 26C6.204 26 3.11867 25.088 0.486667 23.5027C0.341135 23.4153 0.220223 23.2924 0.135315 23.1455C0.0504083 22.9985 0.00430045 22.8324 0.0013334 22.6627L0 22.5ZM21 22.504L20.9987 22.696C20.9912 23.1404 20.8851 23.5776 20.688 23.976C23.0156 24.1196 25.3405 23.6555 27.4347 22.6293C27.5966 22.5502 27.7342 22.4287 27.8327 22.2778C27.9313 22.1269 27.9873 21.9521 27.9947 21.772C28.0417 20.6537 27.7992 19.5421 27.2906 18.545C26.7819 17.5479 26.0244 16.6991 25.0914 16.0807C24.1584 15.4623 23.0815 15.0953 21.965 15.0153C20.8485 14.9353 19.7303 15.145 18.7187 15.624C20.2029 17.6088 21.003 20.0216 20.9987 22.5L21 22.504Z" fill="white"/>
</svg>
