<svg width="26" height="27" viewBox="0 0 26 27" fill="none" xmlns="http://www.w3.org/2000/svg">
<rect y="0.5" width="26" height="26" rx="13" fill="#061633"/>
<path d="M17.225 9.99511C17.225 8.56943 16.679 7.27899 15.7976 6.34574C14.9152 5.41146 13.6965 4.83334 12.35 4.83334C11.0035 4.83334 9.78478 5.41146 8.9024 6.34574C8.021 7.27899 7.475 8.56943 7.475 9.99511C7.475 11.4208 8.021 12.7112 8.9024 13.6445C9.78478 14.5788 11.0035 15.1569 12.35 15.1569C13.6965 15.1569 14.9152 14.5788 15.7976 13.6445C16.2508 13.1657 16.6103 12.5969 16.8552 11.9706C17.1002 11.3443 17.2258 10.673 17.225 9.99511ZM6.5 20.3186C6.5 21.351 8.69375 22.3833 12.35 22.3833C15.7801 22.3833 18.2 21.351 18.2 20.3186C18.2 18.2539 15.9049 16.1892 12.35 16.1892C8.69375 16.1892 6.5 18.2539 6.5 20.3186Z" fill="white"/>
</svg>
